<?xml version="1.0" encoding="UTF-8"?>
<svg width="40px" height="22px" viewBox="0 0 40 22" version="1.1" xmlns="http://www.w3.org/2000/svg" xmlns:xlink="http://www.w3.org/1999/xlink">
    <!-- Generator: Sketch 55.2 (78181) - https://sketchapp.com -->
    <title>anj_selent</title>
    <desc>Created with Sketch.</desc>
    <g id="anj_selent" stroke="none" stroke-width="1" fill="none" fill-rule="evenodd">
        <path d="M12.6364895,2.54004891 L12.6364895,2.54004891 C12.1762636,2.53177746 11.8099087,2.15345708 11.8182125,1.69504558 C11.8182226,1.69448593 11.8182333,1.69392629 11.8182446,1.69336665 C11.8182446,1.22665827 12.1859018,0.848060021 12.6364893,0.848060021 L28.7719419,0.848060021 L28.7719419,0.848060075 C28.4930244,0.331193875 27.9539824,0.00630064925 27.3648929,0 L12.6364893,0 C11.7325501,0 11,0.755819775 11,1.69198999 L11,4.22928661 L11.4091223,4.22928661 C12.0863856,4.22928661 12.6364893,4.79649562 12.6364893,5.5 C12.6364893,6.19937422 12.0863856,6.76933667 11.4091223,6.76933667 L11,6.76933667 L11,7.61326658 L11.4091223,7.61326658 C12.0863856,7.61326658 12.6364893,8.18047559 12.6364893,8.88260325 C12.6364893,9.58610763 12.0863856,10.1533166 11.4091223,10.1533166 L11,10.1533166 L11,11 L11.4091223,11 C12.0863856,11 12.6364893,11.567209 12.6364893,12.2707134 C12.6364893,12.9700876 12.0863856,13.5386733 11.4091223,13.5386733 L11,13.5386733 L11,14.3853567 L11.4091223,14.3853567 C12.0863856,14.3853567 12.6364893,14.9553191 12.6364893,15.6546934 C12.6364893,16.356821 12.0863856,16.9254068 11.4091223,16.9254068 L11,16.9254068 L11,17.7679599 L11.4091223,17.7679599 C12.0863856,17.7679599 12.6364893,18.3365457 12.6364893,19.0400501 C12.6364893,19.7421777 12.0863856,20.30801 11.4091223,20.30801 L11,20.30801 C11,21.2441802 11.7325501,22 12.6364893,22 L27.3607464,22 C28.2660677,22 29,21.2428035 29,20.30801 L29,2.54005006 L12.6364893,2.54005006 L12.6364895,2.54004891 Z M19.185211,6.5311628 L19.185211,6.5311628 C19.3247825,6.29161337 19.6326389,6.20971783 19.8735317,6.34805892 L22.9225987,8.10337807 C23.1630963,8.24105016 23.2460265,8.54805892 23.1091916,8.78898508 L23.1091916,8.78898508 C22.9685865,9.02806342 22.6609042,9.10974814 22.4194888,8.97208896 L19.3676574,7.21676981 L19.3676575,7.21676982 C19.1276609,7.07727896 19.0460891,6.77074667 19.185211,6.53116281 L19.185211,6.5311628 Z M16.4167245,11.3083843 L16.4167244,11.3083844 C16.5532016,11.0690522 16.8586236,10.9852357 17.0989009,11.1211757 C17.1004929,11.1220764 17.1020799,11.1229858 17.1036618,11.1239038 L20.1554932,12.8805996 L20.1554932,12.8805996 C20.3907493,13.029295 20.4604431,13.3397963 20.3111592,13.5741249 C20.1708534,13.7943616 19.8846993,13.8710535 19.6523824,13.750687 L16.6019332,11.9926144 L16.6019332,11.9926144 C16.3619367,11.8577208 16.2771686,11.5545784 16.4125956,11.3155302 C16.4139514,11.3131371 16.415327,11.3107552 16.4167225,11.3083848 L16.4167245,11.3083843 Z M22.1029719,16.9419263 L15.5307535,16.9419263 L15.5307535,16.4435533 L16.0504494,16.4435533 L16.0504494,15.9410502 C16.0504494,15.6643293 16.274361,15.4399238 16.5535593,15.4399238 L21.0843126,15.4399238 C21.3635109,15.4399238 21.5874225,15.6643293 21.5874225,15.9410502 L21.5874225,16.4435533 L22.1029719,16.4435533 L22.1029719,16.9419263 Z M27.3897722,14.4321641 L27.3897722,14.432164 C27.1864148,14.7901803 26.7301834,14.9162062 26.3707479,14.7136518 C26.3671666,14.7116336 26.363602,14.709586 26.3600546,14.7075091 L21.0359358,11.3593239 L20.4056662,12.44418 L17.3524527,10.6888608 L19.1161016,7.64906108 L22.167933,9.40438023 L21.5390456,10.4892363 L27.1133373,13.4065079 L27.1133373,13.4065079 C27.4736151,13.6121963 27.5982738,14.0698508 27.3917733,14.4287081 C27.3911094,14.4298619 27.3904423,14.431014 27.3897722,14.4321643 L27.3897722,14.4321641 Z" fill="#5584FF" fill-rule="nonzero"></path>
    </g>
</svg>