<?xml version="1.0" encoding="UTF-8"?>
<svg width="40px" height="22px" viewBox="0 0 40 22" version="1.1" xmlns="http://www.w3.org/2000/svg" xmlns:xlink="http://www.w3.org/1999/xlink">
    <!-- Generator: Sketch 55.2 (78181) - https://sketchapp.com -->
    <title>qtts_selent</title>
    <desc>Created with Sketch.</desc>
    <g id="qtts_selent" stroke="none" stroke-width="1" fill="none" fill-rule="evenodd">
        <g transform="translate(6.000000, 0.000000)" fill="#5584FF" fill-rule="nonzero">
            <path d="M16.1834479,14.0343584 C16.0793766,14.0343584 15.3613557,13.2667443 15.8747268,11.8442987 C17.0055401,10.6401207 17.9282381,8.6683286 17.9282381,6.69290205 C17.9282381,3.73522821 15.978798,2.2 13.9252867,2.2 C11.7711694,2.2 9.9223352,3.73522821 9.9223352,6.69290205 C9.9223352,8.66466552 10.7444274,10.6364862 11.8717753,11.8442987 C12.281075,13.0484481 11.5630541,13.9252103 11.358377,14.0343584 C9.10021573,14.911092 6.53333333,16.4463202 6.53333333,18.0870621 L6.53333333,18.6364086 C6.53333333,20.7173202 10.3316349,21.2666667 13.9252867,21.2666667 C17.4148671,21.2666667 21.2131687,20.8301028 21.2131687,18.6364086 L21.2131687,18.0870621 C21.1125628,16.4463202 18.4416092,14.8019725 16.1834206,14.0343584 L16.1834479,14.0343584 Z" id="路径"></path>
            <path d="M22.5533348,10.3574899 C22.4470843,10.3574899 21.8202509,10.1451181 22.2381491,8.86373085 C23.2863909,7.79827961 24.0194749,5.98594885 24.0194749,4.17361808 C24.0194749,1.50820793 22.3443718,0.0144488643 20.2478603,0.0144488643 C18.7817202,0.0144488643 17.4182927,0.761328397 16.8941718,2.25155118 C18.1513488,3.31700241 18.9906833,4.91696133 18.9906833,7.0478638 C18.9906833,9.2885024 17.9424136,11.4194049 16.7914593,12.8034278 C18.572785,13.4441353 21.2996679,14.8281583 22.032724,16.962597 C24.756069,16.8563972 27.2740167,16.2157175 27.2740167,14.6157586 L27.2740167,14.0812787 C27.3767013,12.4883924 24.8587815,11.1043973 22.5533348,10.3574899 L22.5533348,10.3574899 Z M4.73655508,10.3574899 C4.8428364,10.3574899 5.46985159,10.1451181 5.05183218,8.86373085 C4.00328644,7.79827961 3.26998993,5.98594885 3.26998993,4.17361808 C3.37627125,1.50820793 5.05183218,0.0144488643 7.0426702,0.0144488643 C8.50926322,0.0144488643 9.87308605,0.761328397 10.3973589,2.25155118 C9.13978954,3.31700241 8.30023958,4.91696133 8.30023958,7.0478638 C8.30023958,9.2885024 9.34881318,11.4194049 10.5001012,12.8034278 C8.718259,13.4441353 5.99058547,14.8281583 5.25728896,16.962597 C2.53315442,16.8563972 0.0145045365,16.2157453 0.0145045365,14.6157864 L0.0145045365,14.0813066 C0.0215825268,12.4884202 2.53672129,11.1044251 4.73655508,10.3575178 L4.73655508,10.3574899 Z" id="形状"></path>
        </g>
    </g>
</svg>