<?xml version="1.0" encoding="UTF-8"?>
<svg width="40px" height="22px" viewBox="0 0 40 22" version="1.1" xmlns="http://www.w3.org/2000/svg" xmlns:xlink="http://www.w3.org/1999/xlink">
    <!-- Generator: Sketch 55.2 (78181) - https://sketchapp.com -->
    <title>qtts</title>
    <desc>Created with Sketch.</desc>
    <g id="qtts" stroke="none" stroke-width="1" fill="none" fill-rule="evenodd">
        <g transform="translate(6.000000, 0.000000)" fill="#CFD3DF">
            <path d="M16.3485851,14.0343584 C16.2434519,14.0343584 15.5181043,13.2667443 16.0367138,11.8442987 C17.179066,10.6401207 18.1111793,8.6683286 18.1111793,6.69290205 C18.1111793,3.73522821 16.141847,2.2 14.0673814,2.2 C11.8912834,2.2 10.0235835,3.73522821 10.0235835,6.69290205 C10.0235835,8.66466552 10.8540644,10.6364862 11.9929159,11.8442987 C12.4063921,13.0484481 11.6810445,13.9252103 11.4742788,14.0343584 C9.19307508,14.911092 6.6,16.4463202 6.6,18.0870621 L6.6,18.6364086 C6.6,20.7173202 10.4370598,21.2666667 14.0673814,21.2666667 C17.5925698,21.2666667 21.4296296,20.8301028 21.4296296,18.6364086 L21.4296296,18.0870621 C21.3279972,16.4463202 18.6297889,14.8019725 16.3485576,14.0343584 L16.3485851,14.0343584 Z" id="路径"></path>
            <path d="M22.7834709,10.3574899 C22.6761362,10.3574899 22.0429065,10.1451181 22.465069,8.86373085 C23.5240072,7.79827961 24.2645716,5.98594885 24.2645716,4.17361808 C24.2645716,1.50820793 22.5723756,0.0144488643 20.4544711,0.0144488643 C18.9733704,0.0144488643 17.5960304,0.761328397 17.0665613,2.25155118 C18.3365667,3.31700241 19.1844658,4.91696133 19.1844658,7.0478638 C19.1844658,9.2885024 18.1254995,11.4194049 16.9628007,12.8034278 C18.7623033,13.4441353 21.5170115,14.8281583 22.2575478,16.962597 C25.0086819,16.8563972 27.552323,16.2157175 27.552323,14.6157586 L27.552323,14.0812787 C27.6560554,12.4883924 25.1124425,11.1043973 22.7834709,10.3574899 L22.7834709,10.3574899 Z M4.78488728,10.3574899 C4.8922531,10.3574899 5.52566641,10.1451181 5.10338149,8.86373085 C4.0441363,7.79827961 3.30335717,5.98594885 3.30335717,4.17361808 C3.41072299,1.50820793 5.10338149,0.0144488643 7.11453418,0.0144488643 C8.59609244,0.0144488643 9.97383183,0.761328397 10.5034544,2.25155118 C9.2330527,3.31700241 8.3849359,4.91696133 8.3849359,7.0478638 C8.3849359,9.2885024 9.44420924,11.4194049 10.6072451,12.8034278 C8.80722082,13.4441353 6.05171389,14.8281583 5.31093476,16.962597 C2.55900294,16.8563972 0.014652542,16.2157453 0.014652542,14.6157864 L0.014652542,14.0813066 C0.0218027566,12.4884202 2.5626062,11.1044251 4.78488728,10.3575178 L4.78488728,10.3574899 Z" id="形状"></path>
        </g>
    </g>
</svg>