<?xml version="1.0" encoding="UTF-8"?>
<svg width="40px" height="22px" viewBox="0 0 40 22" version="1.1" xmlns="http://www.w3.org/2000/svg" xmlns:xlink="http://www.w3.org/1999/xlink">
    <!-- Generator: Sketch 55.2 (78181) - https://sketchapp.com -->
    <title>home</title>
    <desc>Created with Sketch.</desc>
    <g id="home" stroke="none" stroke-width="1" fill="none" fill-rule="evenodd">
        <path d="M21.2453912,0.457517382 L21.2453912,0.45751735 C20.5727548,-0.152505794 19.5468573,-0.152505794 18.8742209,0.457517413 L9.2860626,9.55997647 L9.28606258,9.55997649 C8.92635069,9.89042404 8.90268302,10.4498492 9.23319769,10.8094869 C9.55930515,11.1643286 10.1095351,11.1928071 10.4705484,10.8735337 L10.6230122,10.7288055 L10.6230122,20.2291419 L10.6230122,20.2291412 C10.6217959,21.2059413 11.4128274,21.9987831 12.3898288,22 C12.3905631,22 12.3912975,22 12.3920318,22 L17.540013,22 L17.540013,16.6753212 L17.5400129,16.675279 C17.5391242,15.9875074 18.0960674,15.4292367 18.7839832,15.4283489 C18.7847175,15.4283479 18.7854518,15.4283476 18.7861861,15.428348 L21.2085446,15.428348 L21.2085445,15.428348 C21.8964603,15.4280434 22.4543715,15.9853469 22.4546749,16.6731185 C22.4546752,16.6738526 22.4546749,16.6745868 22.4546739,16.6753209 L22.4546739,22 L27.7248707,22 L27.7248708,22 C28.7018746,22.0003044 29.4941386,21.2086963 29.4944444,20.2318962 C29.4944446,20.2309786 29.4944442,20.2300609 29.4944431,20.2291433 L29.4944431,10.8449319 C29.8874365,11.2004241 30.4450027,11.1734595 30.7719468,10.8091626 L30.7719468,10.8091626 C31.099341,10.4466828 31.0708395,9.88748269 30.7082846,9.5601535 C30.7082228,9.56009773 30.708161,9.56004197 30.7080992,9.55998622 L21.2453857,0.458065234 L21.2453912,0.457517382 Z" id="路径" fill="#5584FF"></path>
    </g>
</svg>