<?xml version="1.0" encoding="UTF-8"?>
<svg width="59px" height="59px" viewBox="0 0 59 59" version="1.1" xmlns="http://www.w3.org/2000/svg" xmlns:xlink="http://www.w3.org/1999/xlink">
    <!-- Generator: Sketch 55.2 (78181) - https://sketchapp.com -->
    <title>qunti</title>
    <desc>Created with Sketch.</desc>
    <defs>
        <linearGradient x1="50%" y1="0%" x2="50%" y2="100%" id="linearGradient-1">
            <stop stop-color="#929DFC" offset="0%"></stop>
            <stop stop-color="#5964F7" offset="100%"></stop>
        </linearGradient>
        <circle id="path-2" cx="22.5" cy="22.5" r="22.5"></circle>
        <filter x="-26.7%" y="-20.0%" width="153.3%" height="153.3%" filterUnits="objectBoundingBox" id="filter-3">
            <feMorphology radius="1.5" operator="erode" in="SourceAlpha" result="shadowSpreadOuter1"></feMorphology>
            <feOffset dx="0" dy="3" in="shadowSpreadOuter1" result="shadowOffsetOuter1"></feOffset>
            <feGaussianBlur stdDeviation="5" in="shadowOffsetOuter1" result="shadowBlurOuter1"></feGaussianBlur>
            <feColorMatrix values="0 0 0 0 0.376470588   0 0 0 0 0.419607843   0 0 0 0 0.968627451  0 0 0 1 0" type="matrix" in="shadowBlurOuter1"></feColorMatrix>
        </filter>
        <linearGradient x1="50%" y1="0%" x2="50%" y2="100%" id="linearGradient-4">
            <stop stop-color="#FFFFFF" offset="0%"></stop>
            <stop stop-color="#FFFFFF" stop-opacity="0.766581075" offset="100%"></stop>
        </linearGradient>
        <linearGradient x1="50%" y1="0%" x2="50%" y2="100%" id="linearGradient-5">
            <stop stop-color="#FFFFFF" offset="0%"></stop>
            <stop stop-color="#FFFFFF" stop-opacity="0.766581075" offset="100%"></stop>
        </linearGradient>
    </defs>
    <g id="yem" stroke="none" stroke-width="1" fill="none" fill-rule="evenodd">
        <g id="home" transform="translate(-111.000000, -81.000000)">
            <g id="qunti" transform="translate(118.000000, 85.000000)">
                <g id="Oval-10-Copy-8备份-5">
                    <use fill="black" fill-opacity="1" filter="url(#filter-3)" xlink:href="#path-2"></use>
                    <use fill="url(#linearGradient-1)" fill-rule="evenodd" xlink:href="#path-2"></use>
                </g>
                <path d="M25.2740873,26.333312 C25.1569484,26.333312 24.3721175,25.5754588 24.9343844,24.1366361 L24.9343844,24.1366361 C26.3362939,22.7730399 27.1428367,20.9666655 27.195166,19.0732982 L27.1951662,19.0732962 C27.3764513,16.8231729 25.5780024,14.8612936 23.178227,14.691314 C23.053203,14.6824583 22.9278294,14.6785714 22.8024564,14.6799485 L22.8024566,14.6799485 C20.4289802,14.6223351 18.4550861,16.379723 18.3936396,18.6051819 C18.3893269,18.7613824 18.3947043,18.9176859 18.4097446,19.0733013 L18.4097445,19.0732892 C18.4246376,20.9528897 19.189359,22.7591837 20.5533757,24.1366325 L20.5533757,24.1366325 C20.9009203,24.9051687 20.6728025,25.7963831 19.9911088,26.3333083 C17.5077632,27.1900119 14.6964286,28.7057183 14.6964286,30.3092917 L14.6964286,30.8474773 C14.6964286,32.8903858 18.8665749,33.4285714 22.8141344,33.4285714 C26.7617168,33.4285714 30.7678571,33.0112121 30.7678571,30.8584714 L30.7678571,30.3202858 C30.6858599,28.705729 27.7573863,27.1241224 25.2740407,26.3333191 L25.2740873,26.333312 Z" id="路径" fill="url(#linearGradient-4)" fill-rule="nonzero"></path>
                <path d="M32.5365601,22.6288004 C32.4233318,22.6288004 31.7779304,22.405343 32.208198,21.0981172 L32.2081981,21.098117 C33.4115697,19.7724516 34.0697867,18.0510823 34.0538198,16.2714372 C34.0538198,13.5340841 32.3101036,12.003401 30.1361199,12.003401 L30.1361197,12.0034009 C28.5888613,11.9362781 27.1766366,12.8683109 26.6486874,14.3050121 L26.6486875,14.3050121 C28.095898,15.5359918 28.8995426,17.347988 28.833994,19.2322478 L28.8339943,19.2322397 C28.7724695,21.3972833 27.9748689,23.4790104 26.5694334,25.1426769 C28.4263778,25.8018762 31.2570858,27.2208307 32.0157156,29.4107132 C34.8464236,29.2989845 37.4619978,28.6397852 37.4619978,26.9973733 L37.4619978,26.4499027 C37.5525804,24.8074908 34.9370062,23.3885364 32.5365659,22.6287812 L32.5365601,22.6288004 Z M12.9141144,22.6288004 C13.0273427,22.6288004 13.6727441,22.405343 13.2424765,21.0981172 L13.2424767,21.0981174 C12.0432074,19.7707826 11.3891038,18.0495988 11.4081779,16.2714376 C11.5214062,13.5340845 13.2651223,12.0034013 15.3258777,12.0034013 L15.3258776,12.0034013 C16.873136,11.9362785 18.2853607,12.8683113 18.8133099,14.3050125 L18.8133103,14.3050122 C17.3660998,15.5359918 16.5624496,17.347988 16.6280037,19.2322478 L16.6280035,19.2322407 C16.6895283,21.3972843 17.4871345,23.4790115 18.8925644,25.142678 C17.0356199,25.8018773 14.2049119,27.2208318 13.4462822,29.4107143 C10.6155742,29.2989856 8,28.6397863 8,26.9973744 L8,26.4499038 C8.01132283,24.8074919 10.6382199,23.3885374 12.9254319,22.6287823 L12.9141144,22.6288004 Z" id="形状" fill="url(#linearGradient-5)" fill-rule="nonzero"></path>
            </g>
        </g>
    </g>
</svg>