<?xml version="1.0" encoding="UTF-8"?>
<svg width="59px" height="59px" viewBox="0 0 59 59" version="1.1" xmlns="http://www.w3.org/2000/svg" xmlns:xlink="http://www.w3.org/1999/xlink">
    <!-- Generator: Sketch 55.2 (78181) - https://sketchapp.com -->
    <title>taishi</title>
    <desc>Created with Sketch.</desc>
    <defs>
        <linearGradient x1="50%" y1="0%" x2="50%" y2="100%" id="linearGradient-1">
            <stop stop-color="#8EBAFF" offset="0%"></stop>
            <stop stop-color="#5584FF" offset="100%"></stop>
        </linearGradient>
        <circle id="path-2" cx="22.5" cy="22.5" r="22.5"></circle>
        <filter x="-26.7%" y="-20.0%" width="153.3%" height="153.3%" filterUnits="objectBoundingBox" id="filter-3">
            <feMorphology radius="1.5" operator="erode" in="SourceAlpha" result="shadowSpreadOuter1"></feMorphology>
            <feOffset dx="0" dy="3" in="shadowSpreadOuter1" result="shadowOffsetOuter1"></feOffset>
            <feGaussianBlur stdDeviation="5" in="shadowOffsetOuter1" result="shadowBlurOuter1"></feGaussianBlur>
            <feColorMatrix values="0 0 0 0 0.333333333   0 0 0 0 0.517647059   0 0 0 0 1  0 0 0 1 0" type="matrix" in="shadowBlurOuter1"></feColorMatrix>
        </filter>
        <linearGradient x1="50.0040248%" y1="0%" x2="50%" y2="100%" id="linearGradient-4">
            <stop stop-color="#FFFFFF" offset="0%"></stop>
            <stop stop-color="#FFFFFF" stop-opacity="0.726661219" offset="100%"></stop>
            <stop stop-color="#FFFFFF" stop-opacity="0.880244755" offset="100%"></stop>
        </linearGradient>
    </defs>
    <g id="yem" stroke="none" stroke-width="1" fill="none" fill-rule="evenodd">
        <g id="home" transform="translate(-15.000000, -81.000000)">
            <g id="taishi" transform="translate(22.000000, 85.000000)">
                <g id="Oval-10-Copy-8备份-4">
                    <use fill="black" fill-opacity="1" filter="url(#filter-3)" xlink:href="#path-2"></use>
                    <use fill="url(#linearGradient-1)" fill-rule="evenodd" xlink:href="#path-2"></use>
                </g>
                <path d="M36.0000251,22.5000125 C36.0000251,15.0750056 29.977332,9 22.5000125,9 C15.0750056,9 9,15.0226931 9,22.5000125 C9,29.3538001 14.1401298,35.0651492 20.7863547,35.8962437 C21.1500113,36.0000251 21.6174492,36.0000251 22.1886685,36.0000251 L22.6561064,36.0000251 C30.0288008,35.8962437 36.0000251,29.9250194 36.0000251,22.5000125 Z M34.0788045,22.7075752 C34.026492,22.0325746 33.9750232,21.357574 33.8189293,20.7348859 L33.8189293,20.1121978 C33.9750232,20.8909798 34.0788045,21.7220743 34.0788045,22.5523251 L34.0788045,22.7075752 Z M10.9726893,22.5000125 C10.9726893,21.668918 11.0764707,20.890136 11.2325646,20.1113541 C11.7514713,20.6302608 12.8939099,20.6302608 13.2052539,19.8514788 C13.7250044,20.1636666 14.400005,20.2151354 14.400005,20.8386672 C14.400005,22.8636691 14.4523176,25.0447649 16.3212255,25.0447649 C16.3735381,25.0447649 17.3598828,25.4084215 17.8273207,26.6023288 C17.9834146,27.0174542 18.6061027,26.6023288 19.3334158,26.6023288 C19.6970724,26.6023288 19.3334158,27.1735481 19.3334158,28.4712368 C19.3334158,29.7174567 22.0334184,31.6386773 22.0334184,31.6386773 C22.0334184,32.4697718 22.0334184,33.1447724 22.1371997,33.6636792 C21.5145116,33.6636792 20.9947611,33.7159917 20.6311046,33.8712418 C15.0750056,32.936366 10.9726893,28.2113616 10.9726893,22.5000125 Z M25.3561089,33.7151479 C25.3037964,33.4038039 25.0447649,33.24771 24.577327,33.4038039 C24.9409836,31.7939274 25.1485462,30.8598953 25.9273282,30.1848947 C27.0697668,29.19855 26.0834221,28.0561114 25.200015,28.2122053 C24.5250144,28.3159867 24.9401398,27.3811108 24.3174517,27.2773295 C23.6947636,27.2250169 22.9151379,25.9796408 21.9811058,25.5636716 C21.5136679,25.3561089 21.0462299,24.7325771 20.3197605,24.7325771 C19.6970724,24.7325771 18.709884,25.2514838 18.709884,24.8363585 C18.709884,23.4340447 18.5537901,22.3962312 18.5537901,22.0325746 C18.5537901,21.7212306 18.3462274,21.9287933 19.2287907,21.9287933 C19.6962287,21.9287933 19.488666,20.9939174 19.9561039,20.9424486 C20.4235419,20.890136 21.5136679,21.357574 21.7735431,21.2023238 C22.0334184,21.0462299 23.6947636,25.5122028 23.6947636,21.929637 C23.6947636,21.5145116 23.487201,20.7871984 23.6947636,20.3720731 C24.577327,18.7621966 25.3561089,17.4645079 25.3046401,17.308414 C25.2523276,17.2046326 24.4220768,17.1008513 23.7470762,17.3607265 C23.5395135,17.4130391 23.7993887,17.7758519 23.487201,17.8796332 C22.240981,18.1395085 21.150855,17.5682892 21.5659804,16.9447574 C21.9811058,16.3735381 23.3834196,16.6848821 23.487201,15.4909748 C23.5395135,14.8159742 23.6432948,14.0371922 23.6432948,13.4136603 C25.3046401,13.6735356 25.0970774,11.2325646 22.6569502,11.0250019 C27.6418298,11.0773144 31.8993963,14.2962237 33.4569602,18.8136654 C33.3531789,18.7613528 33.3008663,18.709884 33.197085,18.709884 C32.4697718,16.840976 30.6531764,18.1909773 31.2758644,19.8523226 C28.0046426,22.3962312 28.8357372,24.1622016 29.9258632,25.1485462 C30.4970825,25.667453 31.0159892,26.4985475 31.3796458,27.0697668 C31.0159892,28.2122053 32.7819596,27.7447674 33.6645229,25.8235469 C32.5212406,29.6651442 29.3538001,32.7288033 25.3561089,33.7151479 Z" id="形状" fill="url(#linearGradient-4)" fill-rule="nonzero"></path>
            </g>
        </g>
    </g>
</svg>