<?xml version="1.0" encoding="UTF-8"?>
<svg width="59px" height="59px" viewBox="0 0 59 59" version="1.1" xmlns="http://www.w3.org/2000/svg" xmlns:xlink="http://www.w3.org/1999/xlink">
    <!-- Generator: Sketch 55.2 (78181) - https://sketchapp.com -->
    <title>tais_sj</title>
    <desc>Created with Sketch.</desc>
    <defs>
        <linearGradient x1="50%" y1="0%" x2="50%" y2="100%" id="linearGradient-1">
            <stop stop-color="#8FECDC" offset="0%"></stop>
            <stop stop-color="#56D5B6" offset="100%"></stop>
        </linearGradient>
        <circle id="path-2" cx="22.5" cy="22.5" r="22.5"></circle>
        <filter x="-26.7%" y="-20.0%" width="153.3%" height="153.3%" filterUnits="objectBoundingBox" id="filter-3">
            <feMorphology radius="1.5" operator="erode" in="SourceAlpha" result="shadowSpreadOuter1"></feMorphology>
            <feOffset dx="0" dy="3" in="shadowSpreadOuter1" result="shadowOffsetOuter1"></feOffset>
            <feGaussianBlur stdDeviation="5" in="shadowOffsetOuter1" result="shadowBlurOuter1"></feGaussianBlur>
            <feColorMatrix values="0 0 0 0 0.349019608   0 0 0 0 0.843137255   0 0 0 0 0.721568627  0 0 0 1 0" type="matrix" in="shadowBlurOuter1"></feColorMatrix>
        </filter>
        <linearGradient x1="50%" y1="0%" x2="50%" y2="100%" id="linearGradient-4">
            <stop stop-color="#FFFFFF" offset="0%"></stop>
            <stop stop-color="#FFFFFF" stop-opacity="0.766581075" offset="100%"></stop>
        </linearGradient>
    </defs>
    <g id="yem" stroke="none" stroke-width="1" fill="none" fill-rule="evenodd">
        <g id="home" transform="translate(-207.000000, -81.000000)">
            <g id="tais_sj" transform="translate(214.000000, 85.000000)">
                <g id="Oval-10-Copy-8备份-6">
                    <use fill="black" fill-opacity="1" filter="url(#filter-3)" xlink:href="#path-2"></use>
                    <use fill="url(#linearGradient-1)" fill-rule="evenodd" xlink:href="#path-2"></use>
                </g>
                <path d="M13.3670072,27.8401194 C16.1095842,33.3710009 22.2984751,34.9685252 22.5799805,35.0789328 L23.002186,35.2348103 L23.4244361,35.0789328 C23.7668073,34.9533551 31.7586895,31.8836741 33.7063368,24.9529573 C35.0452458,19.9204852 34.858889,13.5945953 34.8437165,13.328315 L34.8132817,12.578958 L34.1437589,12.2670237 C33.9117491,12.1567084 28.3010271,9.63480186 22.9869709,9.63480186 C17.6729672,9.63480186 12.0660395,12.1605824 11.8150629,12.2670237 L11.1455401,12.578958 L11.1151053,13.328315 C11.1151053,13.5451524 10.9287931,18.7031925 11.9101164,23.4542118 L12.4122926,25.2305908 L18.4908284,18.6385518 L21.8420648,21.4420289 L25.7980232,17.0941838 L23.8048085,17.1892816 L23.6945835,15.0096628 L29.476494,14.7281628 L29.7730774,20.7268985 L27.5935951,20.8372137 L27.4984521,18.8097244 L22.0589208,24.7628638 L18.6924856,21.9593343 L13.5724171,27.566262" id="路径" fill="url(#linearGradient-4)" fill-rule="nonzero"></path>
            </g>
        </g>
    </g>
</svg>